<svg width="150" height="146" viewBox="0 0 150 146" fill="none" xmlns="http://www.w3.org/2000/svg">
<circle cx="77.4586" cy="72.5414" r="52.364" transform="rotate(-33.4 77.4586 72.5414)" fill="#4A4A52"/>
<circle cx="72.5414" cy="73.1308" r="52.364" transform="rotate(-33.4 72.5414 73.1308)" fill="#656779"/>
<path fill-rule="evenodd" clip-rule="evenodd" d="M111.067 50.949C110.622 50.177 110.151 49.4136 109.654 48.6597C96.1387 28.1631 68.5669 22.5034 48.0703 36.0184C30.6232 47.5226 23.9265 69.2121 30.6557 88.0531L84.4561 52.5783L68.8832 49.9897L70.2329 41.8703L94.5623 45.9146L94.574 45.9068L94.5811 45.9177L99.2766 53.0388L34.3359 95.8592C34.6852 96.4454 35.0495 97.0264 35.429 97.6019C48.944 118.098 76.5158 123.758 97.0124 110.243C114.365 98.8015 121.083 77.2849 114.536 58.5159L60.4121 94.2037L76.1859 96.8257L74.8362 104.945L50.488 100.898L50.516 100.729L50.4189 100.793L45.8905 93.9252L111.067 50.949Z" fill="#E8E8E8"/>
</svg>
