# Blender v3.0.0 OBJ File: ''
# www.blender.org
mtllib arrow.mtl
o Cylinder
v 0.000000 -0.502453 -0.240399
v 0.000000 0.497547 0.000000
v 0.169987 -0.502453 -0.169987
v 0.240399 -0.502453 -0.000000
v 0.169987 -0.502453 0.169987
v 0.000000 -0.502453 0.240399
v -0.169987 -0.502453 0.169987
v -0.240399 -0.502453 -0.000000
v -0.169987 -0.502453 -0.169987
v 0.000000 0.282636 -0.240399
v 0.169987 0.282636 0.169987
v 0.169987 0.282636 -0.169987
v -0.240399 0.282636 0.000000
v -0.169987 0.282636 0.169987
v 0.000000 0.282636 0.240399
v 0.240399 0.282636 0.000000
v -0.169987 0.282636 -0.169987
v 0.000000 0.282636 -0.676881
v 0.478627 0.282636 0.478627
v 0.478627 0.282636 -0.478627
v -0.676881 0.282636 0.000000
v -0.478627 0.282636 0.478627
v 0.000000 0.282636 0.676881
v 0.676881 0.282636 0.000000
v -0.478627 0.282636 -0.478627
vt 0.000000 0.884259
vt 0.125000 0.884259
vt 0.125000 0.884259
vt 0.000000 0.884259
vt 0.875000 0.884259
vt 1.000000 0.884259
vt 1.000000 0.884259
vt 0.875000 0.884259
vt 0.750000 0.884259
vt 0.750000 0.884259
vt 0.625000 0.884259
vt 0.625000 0.884259
vt 0.750000 0.490000
vt 0.919706 0.419706
vt 0.990000 0.250000
vt 0.919706 0.080294
vt 0.750000 0.010000
vt 0.580294 0.080294
vt 0.510000 0.250000
vt 0.580294 0.419706
vt 0.125000 0.500000
vt 0.000000 0.500000
vt 0.250000 0.500000
vt 0.250000 0.884259
vt 0.375000 0.500000
vt 0.375000 0.884259
vt 0.500000 0.500000
vt 0.500000 0.884259
vt 0.625000 0.500000
vt 0.750000 0.500000
vt 0.875000 0.500000
vt 1.000000 0.500000
vt 0.875000 1.000000
vt 0.750000 1.000000
vt 0.625000 1.000000
vt 0.500000 1.000000
vt 0.500000 0.884259
vt 0.375000 1.000000
vt 0.375000 0.884259
vt 0.250000 1.000000
vt 0.250000 0.884259
vt 0.125000 1.000000
vt 0.000000 1.000000
vn 0.0000 -0.8042 -0.5944
vn -0.4203 -0.8042 -0.4203
vn -0.7010 -0.1312 -0.7010
vn 0.0000 -0.1312 -0.9914
vn 0.4203 -0.8042 -0.4203
vn 0.7010 -0.1312 -0.7010
vn 0.5944 -0.8042 -0.0000
vn 0.9914 -0.1312 -0.0000
vn 0.4203 -0.8042 0.4203
vn 0.7010 -0.1312 0.7010
vn 0.0000 -1.0000 0.0000
vn -0.7071 0.0000 -0.7071
vn 0.0000 0.0000 -1.0000
vn -1.0000 -0.0000 -0.0000
vn -0.5944 -0.8042 -0.0000
vn -0.7071 -0.0000 0.7071
vn -0.4203 -0.8042 0.4203
vn 0.0000 -0.0000 1.0000
vn 0.0000 -0.8042 0.5944
vn 0.7071 -0.0000 0.7071
vn 1.0000 0.0000 -0.0000
vn 0.7071 0.0000 -0.7071
vn -0.2447 0.9434 -0.2240
vn 0.0000 -0.1312 0.9914
vn -0.7010 -0.1312 0.7010
vn -0.9914 -0.1312 0.0000
usemtl Default_OBJ
s 1
f 10/1/1 17/2/2 25/3/3 18/4/4
f 12/5/5 10/6/1 18/7/4 20/8/6
f 16/9/7 12/5/5 20/8/6 24/10/8
f 11/11/9 16/9/7 24/10/8 19/12/10
f 1/13/11 3/14/11 4/15/11 5/16/11 6/17/11 7/18/11 8/19/11 9/20/11
f 9/21/12 17/2/2 10/1/1 1/22/13
f 8/23/14 13/24/15 17/2/2 9/21/12
f 7/25/16 14/26/17 13/24/15 8/23/14
f 6/27/18 15/28/19 14/26/17 7/25/16
f 5/29/20 11/11/9 15/28/19 6/27/18
f 4/30/21 16/9/7 11/11/9 5/29/20
f 3/31/22 12/5/5 16/9/7 4/30/21
f 1/32/13 10/6/1 12/5/5 3/31/22
f 18/7/4 2/33/23 20/8/6
f 20/8/6 2/34/23 24/10/8
f 24/10/8 2/35/23 19/12/10
f 19/12/10 2/36/23 23/37/24
f 23/37/24 2/38/23 22/39/25
f 22/39/25 2/40/23 21/41/26
f 21/41/26 2/42/23 25/3/3
f 25/3/3 2/43/23 18/4/4
f 17/2/2 13/24/15 21/41/26 25/3/3
f 13/24/15 14/26/17 22/39/25 21/41/26
f 14/26/17 15/28/19 23/37/24 22/39/25
f 15/28/19 11/11/9 19/12/10 23/37/24
