# Blender v3.0.0 OBJ File: ''
# www.blender.org
o Cylinder
v 0.000000 -0.500000 -0.500000
v 0.000000 0.500000 -0.500000
v 0.353553 -0.500000 -0.353553
v 0.353553 0.500000 -0.353553
v 0.500000 -0.500000 0.000000
v 0.500000 0.500000 0.000000
v 0.353553 -0.500000 0.353553
v 0.353553 0.500000 0.353553
v -0.000000 -0.500000 0.500000
v -0.000000 0.500000 0.500000
v -0.353553 -0.500000 0.353553
v -0.353553 0.500000 0.353553
v -0.500000 -0.500000 -0.000000
v -0.500000 0.500000 -0.000000
v -0.353553 -0.500000 -0.353553
v -0.353553 0.500000 -0.353553
vt 1.000000 0.500000
vt 1.000000 1.000000
vt 0.875000 1.000000
vt 0.875000 0.500000
vt 0.750000 1.000000
vt 0.750000 0.500000
vt 0.625000 1.000000
vt 0.625000 0.500000
vt 0.500000 1.000000
vt 0.500000 0.500000
vt 0.375000 1.000000
vt 0.375000 0.500000
vt 0.250000 1.000000
vt 0.250000 0.500000
vt 0.419706 0.419706
vt 0.250000 0.490000
vt 0.080294 0.419706
vt 0.010000 0.250000
vt 0.080294 0.080294
vt 0.250000 0.010000
vt 0.419706 0.080294
vt 0.490000 0.250000
vt 0.125000 1.000000
vt 0.125000 0.500000
vt 0.000000 1.000000
vt 0.000000 0.500000
vt 0.750000 0.490000
vt 0.919706 0.419706
vt 0.990000 0.250000
vt 0.919706 0.080294
vt 0.750000 0.010000
vt 0.580294 0.080294
vt 0.510000 0.250000
vt 0.580294 0.419706
vn -0.0000 0.0000 -1.0000
vn 0.7071 0.0000 -0.7071
vn 1.0000 0.0000 0.0000
vn 0.7071 0.0000 0.7071
vn 0.0000 0.0000 1.0000
vn -0.7071 0.0000 0.7071
vn -1.0000 0.0000 0.0000
vn 0.0000 1.0000 -0.0000
vn -0.7071 0.0000 -0.7071
vn 0.0000 -1.0000 0.0000
s 1
f 1/1/1 2/2/1 4/3/2 3/4/2
f 3/4/2 4/3/2 6/5/3 5/6/3
f 5/6/3 6/5/3 8/7/4 7/8/4
f 7/8/4 8/7/4 10/9/5 9/10/5
f 9/10/5 10/9/5 12/11/6 11/12/6
f 11/12/6 12/11/6 14/13/7 13/14/7
f 4/15/8 2/16/8 16/17/8 14/18/8 12/19/8 10/20/8 8/21/8 6/22/8
f 13/14/7 14/13/7 16/23/9 15/24/9
f 15/24/9 16/23/9 2/25/1 1/26/1
f 1/27/10 3/28/10 5/29/10 7/30/10 9/31/10 11/32/10 13/33/10 15/34/10
