<svg width="475" height="461" viewBox="0 0 475 461" fill="none" xmlns="http://www.w3.org/2000/svg">
<circle cx="244.813" cy="229.272" r="165.5" transform="rotate(-33.4 244.813 229.272)" fill="#4A4A52"/>
<circle cx="229.272" cy="231.135" r="165.5" transform="rotate(-33.4 229.272 231.135)" fill="#656779"/>
<path fill-rule="evenodd" clip-rule="evenodd" d="M351.036 161.028C349.628 158.588 348.139 156.175 346.568 153.792C303.853 89.0113 216.71 71.1234 151.929 113.839C96.7867 150.198 75.6214 218.749 96.8895 278.298L266.929 166.177L217.71 157.996L221.976 132.334L298.87 145.116L298.907 145.092L298.93 145.126L313.77 167.632L108.521 302.969C109.625 304.822 110.776 306.658 111.976 308.477C154.691 373.258 241.834 391.146 306.614 348.431C361.457 312.269 382.691 244.264 361.997 184.943L190.936 297.737L240.79 306.024L236.524 331.686L159.57 318.894L159.659 318.361L159.352 318.563L145.04 296.857L351.036 161.028Z" fill="#E8E8E8"/>
</svg>
