# Blender v2.93.5 OBJ File: ''
# www.blender.org
mtllib test.mtl
o Cube
v 1.000000 1.000000 -1.000000
v 1.000000 -1.000000 -1.000000
v 1.000000 1.000000 1.000000
v 1.000000 -1.000000 1.000000
v -1.000000 1.000000 -1.000000
v -1.000000 -1.000000 -1.000000
v -1.000000 1.000000 1.000000
v -1.000000 -1.000000 1.000000
v 0.623645 0.000000 -0.623645
v -0.623645 0.000000 0.623645
v 0.623645 0.000000 0.623645
v -0.623645 0.000000 -0.623645
v -0.571046 -1.000000 0.000000
v 0.571046 1.000000 0.000000
v -0.571046 1.000000 0.000000
v 0.571046 -1.000000 0.000000
v 0.356130 0.000000 0.000000
v -0.356130 0.000000 0.000000
v 0.000000 -1.000000 -0.548317
v 0.000000 1.000000 0.548317
v 0.000000 -1.000000 0.548317
v 0.000000 1.000000 -0.548317
v 0.000000 0.000000 -0.341956
v 0.000000 0.000000 0.341956
v 0.000000 -1.000000 0.000000
v 0.000000 1.000000 0.000000
vt 0.750000 0.625000
vt 0.875000 0.625000
vt 0.875000 0.750000
vt 0.750000 0.750000
vt 0.500000 0.875000
vt 0.625000 0.875000
vt 0.625000 1.000000
vt 0.500000 1.000000
vt 0.500000 0.125000
vt 0.625000 0.125000
vt 0.625000 0.250000
vt 0.500000 0.250000
vt 0.250000 0.625000
vt 0.375000 0.625000
vt 0.375000 0.750000
vt 0.250000 0.750000
vt 0.500000 0.625000
vt 0.625000 0.625000
vt 0.625000 0.750000
vt 0.500000 0.750000
vt 0.500000 0.375000
vt 0.625000 0.375000
vt 0.625000 0.500000
vt 0.500000 0.500000
vt 0.375000 0.375000
vt 0.375000 0.500000
vt 0.375000 0.125000
vt 0.375000 0.250000
vt 0.375000 0.875000
vt 0.375000 1.000000
vt 0.375000 0.000000
vt 0.500000 0.000000
vt 0.250000 0.500000
vt 0.625000 0.000000
vt 0.750000 0.500000
vt 0.875000 0.500000
vt 0.125000 0.500000
vt 0.125000 0.625000
vt 0.125000 0.750000
vn 0.0000 1.0000 0.0000
vn 0.4045 -0.1848 0.8956
vn -0.9016 -0.1938 0.3867
vn 0.0000 -1.0000 0.0000
vn 0.9016 -0.1938 -0.3867
vn -0.4045 -0.1848 -0.8956
vn -0.4045 0.1848 -0.8956
vn 0.9016 0.1938 -0.3867
vn -0.9016 0.1938 0.3867
vn 0.4045 0.1848 0.8956
vn -0.9016 0.1938 -0.3867
vn 0.9016 0.1938 0.3867
vn 0.9016 -0.1938 0.3867
vn -0.9016 -0.1938 -0.3867
vn -0.4045 0.1848 0.8956
vn 0.4045 0.1848 -0.8956
vn 0.4045 -0.1848 -0.8956
vn -0.4045 -0.1848 0.8956
usemtl Material
s off
f 26/1/1 15/2/1 7/3/1 20/4/1
f 24/5/2 20/6/2 7/7/2 10/8/2
f 18/9/3 15/10/3 5/11/3 12/12/3
f 25/13/4 16/14/4 4/15/4 21/16/4
f 17/17/5 14/18/5 3/19/5 11/20/5
f 23/21/6 22/22/6 1/23/6 9/24/6
f 19/25/7 23/21/7 9/24/7 2/26/7
f 16/14/8 17/17/8 11/20/8 4/15/8
f 13/27/9 18/9/9 12/12/9 6/28/9
f 21/29/10 24/5/10 10/8/10 8/30/10
f 8/31/11 10/32/11 18/9/11 13/27/11
f 2/26/12 9/24/12 17/17/12 16/14/12
f 9/24/13 1/23/13 14/18/13 17/17/13
f 19/33/4 2/26/4 16/14/4 25/13/4
f 10/32/14 7/34/14 15/10/14 18/9/14
f 22/35/1 5/36/1 15/2/1 26/1/1
f 1/23/1 22/35/1 26/1/1 14/18/1
f 6/37/4 19/33/4 25/13/4 13/38/4
f 4/15/15 11/20/15 24/5/15 21/29/15
f 6/28/16 12/12/16 23/21/16 19/25/16
f 12/12/17 5/11/17 22/22/17 23/21/17
f 13/38/4 25/13/4 21/16/4 8/39/4
f 11/20/18 3/19/18 20/6/18 24/5/18
f 14/18/1 26/1/1 20/4/1 3/19/1
